<svg xmlns="http://www.w3.org/2000/svg" version="1.0" width="941.000000pt" height="249.000000pt" viewBox="0 0 941.000000 249.000000" preserveAspectRatio="xMidYMid meet">

<g transform="translate(0.000000,249.000000) scale(0.100000,-0.100000)" fill="#269631" stroke="none">
<path d="M228 2230 c-9 -6 -22 -26 -28 -44 -9 -28 -8 -40 4 -64 8 -16 23 -32 31 -36 9 -3 65 -6 124 -6 173 0 259 -37 305 -132 16 -34 51 -169 96 -373 110 -500 167 -722 202 -787 38 -71 92 -121 167 -157 l56 -26 680 -3 c633 -2 682 -1 714 15 57 29 66 99 19 143 -21 20 -33 20 -695 20 -561 0 -679 2 -701 14 -36 19 -78 65 -91 99 -10 27 -61 219 -61 231 0 3 21 -10 48 -30 89 -68 122 -79 262 -79 121 0 127 1 193 33 84 41 170 112 233 192 l48 61 35 -43 c139 -173 273 -248 446 -248 133 0 218 33 308 119 111 105 155 288 112 456 -73 280 -396 408 -667 263 -61 -32 -162 -126 -205 -190 -14 -21 -28 -38 -32 -38 -3 0 -19 19 -36 41 -50 68 -157 162 -217 191 -79 39 -148 51 -245 45 -68 -4 -97 -11 -159 -41 -89 -42 -167 -117 -203 -194 -26 -55 -41 -66 -41 -29 0 45 -80 348 -104 394 -49 96 -160 178 -274 202 -65 13 -301 14 -324 1z m2203 -526 c89 -45 143 -142 143 -259 0 -77 -18 -128 -62 -177 -57 -63 -104 -83 -197 -83 -68 0 -88 5 -132 28 -58 30 -128 96 -197 185 l-45 60 59 80 c33 44 75 94 95 111 102 89 228 110 336 55z m-945 -3 c55 -25 106 -71 180 -165 l63 -79 -32 -41 c-69 -87 -158 -173 -209 -202 -46 -25 -63 -29 -128 -29 -57 0 -85 6 -115 22 -168 90 -197 319 -56 446 84 76 192 93 297 48z m822 -1088 c-10 -2 -26 -2 -35 0 -10 3 -2 5 17 5 19 0 27 -2 18 -5z" fill="#269631"/>
<path d="M4040 1410 l0 -560 110 0 110 0 0 560 0 560 -110 0 -110 0 0 -560z" fill="#269631"/>
<path d="M4430 1410 l0 -561 110 3 110 3 0 555 0 555 -110 3 -110 3 0 -561z" fill="#269631"/>
<path d="M4884 1941 c-62 -38 -70 -128 -14 -175 107 -89 267 5 216 128 -8 20 -28 41 -45 50 -41 22 -119 20 -157 -3z" fill="#269631"/>
<path d="M6540 1913 c-205 -34 -377 -199 -419 -401 -16 -75 -13 -216 4 -291 43 -179 180 -319 360 -366 69 -18 202 -20 277 -4 154 33 279 141 328 285 l18 53 -26 5 c-46 9 -156 26 -173 26 -9 0 -23 -14 -30 -32 -38 -93 -131 -148 -250 -148 -126 0 -202 50 -258 170 -23 49 -26 67 -26 170 1 95 5 123 22 161 28 61 75 114 132 147 41 24 56 27 136 27 81 0 95 -3 139 -29 31 -18 59 -46 79 -78 30 -48 33 -50 67 -44 19 3 65 8 103 12 78 8 82 16 43 99 -52 111 -154 190 -290 225 -73 18 -171 24 -236 13z" fill="#269631"/>
<path d="M3295 1898 c-3 -7 -85 -238 -184 -513 -99 -275 -183 -508 -186 -517 -7 -17 2 -18 106 -18 l114 0 41 118 41 117 203 0 203 0 40 -117 40 -118 120 0 c110 0 119 1 112 18 -4 9 -91 248 -194 529 l-186 513 -133 0 c-97 0 -134 -3 -137 -12z m200 -418 c32 -91 60 -171 63 -177 3 -10 -27 -13 -130 -13 l-135 0 66 185 c36 101 68 181 72 177 3 -4 32 -81 64 -172z" fill="#269631"/>
<path d="M8810 1830 c-25 -4 -71 -11 -102 -14 l-58 -7 0 -90 0 -89 -50 0 -50 0 0 -80 0 -80 50 0 50 0 0 -194 c0 -106 5 -218 10 -247 21 -112 100 -179 219 -186 37 -2 88 2 116 9 l50 13 -3 60 c-4 102 -3 100 -73 100 -97 1 -99 5 -99 241 l0 194 85 0 85 0 0 85 0 85 -85 0 -85 0 0 105 c0 58 -3 104 -7 104 -5 -1 -28 -5 -53 -9z" fill="#269631"/>
<path d="M5572 1624 c-23 -9 -58 -31 -77 -49 l-35 -32 0 43 0 44 -110 0 -110 0 0 -390 0 -390 110 0 110 0 0 243 c0 232 1 245 23 287 28 55 63 81 118 87 52 5 102 -18 133 -60 20 -27 21 -44 24 -290 l3 -262 107 2 107 2 3 243 c2 148 -2 270 -9 311 -14 85 -56 150 -123 191 -43 27 -58 30 -140 33 -64 2 -104 -2 -134 -13z" fill="#269631"/>
<path d="M7445 1626 c-94 -30 -149 -79 -180 -161 -22 -55 -18 -60 59 -69 28 -4 65 -9 83 -12 28 -5 33 -3 39 20 11 46 58 76 118 76 31 0 61 -6 75 -16 29 -21 51 -72 51 -119 l0 -35 -113 0 c-185 0 -286 -39 -335 -128 -32 -58 -33 -161 -3 -221 68 -131 285 -161 409 -55 l42 36 0 -41 0 -41 106 0 106 0 -4 283 c-4 234 -8 290 -22 327 -29 78 -85 127 -175 154 -65 19 -199 20 -256 2z m242 -488 c-10 -77 -68 -129 -149 -136 -43 -3 -58 0 -79 17 -51 40 -45 105 13 141 27 16 51 20 127 20 l94 0 -6 -42z" fill="#269631"/>
<path d="M8375 1628 c-42 -15 -92 -54 -100 -78 -12 -37 -25 -21 -25 30 l0 50 -105 0 -105 0 0 -390 0 -391 105 3 104 3 3 230 c3 223 4 232 28 279 33 65 75 88 152 84 l57 -3 5 45 c3 25 7 68 8 95 l3 50 -50 2 c-27 1 -63 -3 -80 -9z" fill="#269631"/>
<path d="M4850 1240 l0 -390 110 0 110 0 0 390 0 390 -110 0 -110 0 0 -390z" fill="#269631"/>
<path d="M4035 415 c0 -131 2 -145 18 -145 14 0 17 10 17 70 0 63 2 71 24 85 19 13 29 14 45 5 18 -9 21 -20 21 -85 0 -68 2 -75 20 -75 18 0 20 7 20 68 0 89 -14 116 -63 120 -21 2 -45 -2 -53 -9 -12 -10 -14 -2 -14 50 0 51 -3 61 -17 61 -16 0 -18 -14 -18 -145z" fill="#269631"/>
<path d="M6520 493 c0 -65 0 -66 -20 -48 -27 24 -77 21 -106 -6 -34 -32 -34 -116 -1 -147 28 -26 83 -29 109 -5 17 15 18 15 18 0 0 -10 7 -17 15 -17 13 0 15 23 15 145 0 122 -2 145 -15 145 -12 0 -15 -14 -15 -67z m17 35 c-3 -8 -6 -5 -6 6 -1 11 2 17 5 13 3 -3 4 -12 1 -19z m0 -80 c-2 -13 -4 -3 -4 22 0 25 2 35 4 23 2 -13 2 -33 0 -45z m-43 -29 c30 -24 34 -63 10 -97 -18 -26 -65 -30 -88 -6 -23 22 -20 80 4 104 25 25 41 25 74 -1z m43 -66 c-3 -10 -5 -2 -5 17 0 19 2 27 5 18 2 -10 2 -26 0 -35z" fill="#269631"/>
<path d="M7050 415 c0 -131 2 -145 18 -145 15 0 17 14 17 145 0 131 -2 145 -17 145 -16 0 -18 -14 -18 -145z" fill="#269631"/>
<path d="M7150 415 c0 -122 2 -145 15 -145 13 0 15 23 15 145 0 122 -2 145 -15 145 -13 0 -15 -23 -15 -145z m17 -62 c-2 -38 -3 -7 -3 67 0 74 1 105 3 68 2 -38 2 -98 0 -135z" fill="#269631"/>
<path d="M2920 409 l0 -139 80 0 c70 0 80 2 80 18 0 15 -8 17 -60 14 l-60 -4 0 52 0 52 50 -4 c42 -2 50 0 50 15 0 14 -9 17 -50 17 l-50 0 0 43 0 42 60 -3 c54 -3 60 -2 60 16 0 18 -7 20 -80 20 l-80 -1 0 -138z" fill="#269631"/>
<path d="M4892 543 c2 -5 22 -45 46 -90 33 -65 42 -93 42 -133 0 -43 3 -50 20 -50 18 0 20 7 20 56 0 49 7 69 46 140 42 78 43 84 24 84 -16 0 -28 -16 -53 -70 -18 -38 -35 -69 -38 -70 -3 0 -20 32 -39 70 -24 50 -39 70 -53 70 -10 0 -17 -3 -15 -7z" fill="#269631"/>
<path d="M5670 410 c0 -118 2 -140 15 -140 12 0 15 18 15 105 0 58 3 105 8 104 4 0 38 -47 76 -105 47 -71 74 -104 87 -104 18 0 19 9 19 141 0 125 -2 140 -16 137 -14 -3 -16 -18 -15 -105 1 -57 -1 -103 -6 -103 -4 0 -39 48 -77 105 -98 149 -106 146 -106 -35z m207 73 c-3 -10 -5 -2 -5 17 0 19 2 27 5 18 2 -10 2 -26 0 -35z" fill="#269631"/>
<path d="M6865 537 c-3 -7 -24 -69 -49 -139 -40 -115 -43 -128 -26 -128 12 0 22 12 30 35 11 35 12 35 69 35 56 0 57 -1 70 -35 8 -23 19 -35 31 -35 18 0 18 3 -4 63 -13 34 -35 96 -50 137 -21 58 -32 76 -47 77 -11 1 -22 -4 -24 -10z m44 -84 c7 -27 15 -56 18 -65 5 -15 -2 -18 -40 -18 l-45 0 21 65 c12 36 24 65 27 65 3 0 12 -21 19 -47z m-6 -100 c-13 -2 -33 -2 -45 0 -13 2 -3 4 22 4 25 0 35 -2 23 -4z" fill="#269631"/>
<path d="M7330 410 c0 -133 1 -140 20 -140 19 0 20 7 20 140 0 133 -1 140 -20 140 -19 0 -20 -7 -20 -140z" fill="#269631"/>
<path d="M7782 530 c-18 -11 -40 -36 -48 -55 -43 -103 19 -205 123 -205 78 0 130 68 121 161 -7 70 -46 110 -115 116 -36 3 -56 -1 -81 -17z m112 -21 c26 -12 56 -63 56 -97 0 -88 -89 -142 -153 -92 -36 29 -52 81 -37 125 21 63 77 90 134 64z" fill="#269631"/>
<path d="M8614 540 c-31 -12 -74 -68 -76 -98 -6 -111 39 -172 129 -172 39 0 103 34 103 55 0 23 -22 22 -48 -2 -43 -40 -109 -27 -137 27 -30 58 -13 130 36 156 40 20 63 17 97 -11 31 -26 65 -25 55 1 -15 40 -106 66 -159 44z" fill="#269631"/>
<path d="M4267 534 c-14 -15 -6 -34 14 -34 14 0 19 5 17 17 -3 18 -20 27 -31 17z" fill="#269631"/>
<path d="M3910 485 c0 -16 -6 -25 -15 -25 -8 0 -15 -7 -15 -15 0 -8 7 -15 15 -15 12 0 15 -14 15 -68 0 -75 9 -92 52 -92 34 0 39 27 6 32 -21 3 -23 9 -26 66 -3 61 -2 62 23 62 16 0 25 6 25 15 0 9 -9 15 -25 15 -20 0 -25 5 -25 25 0 16 -6 25 -15 25 -9 0 -15 -9 -15 -25z m17 -87 c-3 -7 -5 -2 -5 12 0 14 2 19 5 13 2 -7 2 -19 0 -25z" fill="#269631"/>
<path d="M9189 503 c-1 -5 -1 -16 0 -25 2 -12 -5 -18 -18 -18 -24 0 -29 -27 -5 -32 12 -2 16 -19 18 -69 2 -36 6 -71 10 -78 11 -17 76 -14 76 4 0 9 -9 15 -25 15 -24 0 -25 2 -25 65 0 58 2 65 20 65 12 0 20 7 20 16 0 11 -6 15 -20 11 -17 -4 -20 0 -20 24 0 19 -5 29 -15 29 -8 0 -16 -3 -16 -7z" fill="#269631"/>
<path d="M1265 476 c-73 -32 -118 -125 -101 -209 23 -114 153 -178 262 -128 78 36 118 120 100 216 -8 43 -59 103 -103 121 -41 17 -119 17 -158 0z" fill="#269631"/>
<path d="M2110 467 c-103 -54 -121 -219 -33 -299 92 -84 260 -47 302 65 14 36 14 108 0 144 -38 100 -168 144 -269 90z" fill="#269631"/>
<path d="M3586 449 c-21 -17 -26 -18 -26 -5 0 9 -7 16 -15 16 -12 0 -15 -17 -15 -95 0 -78 3 -95 15 -95 12 0 15 13 15 58 0 64 19 102 51 102 12 0 19 7 19 20 0 25 -11 25 -44 -1z m-39 -86 c-3 -10 -5 -4 -5 12 0 17 2 24 5 18 2 -7 2 -21 0 -30z" fill="#269631"/>
<path d="M9100 463 c-8 -3 -21 -12 -27 -21 -12 -14 -13 -14 -13 1 0 10 -8 17 -17 17 -16 0 -18 -11 -18 -95 0 -84 2 -95 18 -95 14 0 17 10 17 68 0 70 10 92 42 92 11 0 18 7 18 20 0 11 -1 20 -2 19 -2 0 -10 -3 -18 -6z" fill="#269631"/>
<path d="M3138 365 c29 -79 39 -95 56 -95 18 0 28 17 58 95 32 84 34 95 18 95 -13 0 -25 -20 -45 -75 -15 -41 -31 -72 -36 -69 -5 3 -9 11 -9 19 0 7 -10 38 -21 69 -15 38 -27 56 -39 56 -15 0 -13 -12 18 -95z" fill="#269631"/>
<path d="M3331 434 c-50 -64 -12 -164 62 -164 41 0 88 33 71 50 -8 8 -14 7 -24 -5 -18 -22 -77 -20 -90 4 -19 36 -12 41 61 41 l71 0 -7 28 c-13 55 -32 72 -80 72 -35 0 -47 -5 -64 -26z m99 -14 c32 -32 24 -40 -35 -40 -30 0 -55 4 -55 8 0 13 23 39 40 45 25 9 29 8 50 -13z" fill="#269631"/>
<path d="M3700 364 l39 -96 -19 -39 c-20 -38 -20 -39 -2 -39 15 0 32 29 77 131 31 72 54 133 51 136 -12 13 -34 -8 -49 -49 -9 -23 -21 -56 -27 -73 -12 -30 -12 -30 -41 48 -23 58 -35 77 -49 77 -17 0 -15 -10 20 -96z" fill="#269631"/>
<path d="M4260 365 c0 -88 1 -95 20 -95 19 0 20 7 20 95 0 88 -1 95 -20 95 -19 0 -20 -7 -20 -95z" fill="#269631"/>
<path d="M4360 365 c0 -78 3 -95 15 -95 12 0 15 14 15 65 0 52 4 69 20 85 47 47 80 14 80 -81 0 -55 3 -69 15 -69 24 0 21 151 -3 173 -22 20 -72 22 -91 5 -11 -10 -14 -10 -18 0 -3 6 -11 12 -19 12 -11 0 -14 -20 -14 -95z m17 -2 c-3 -10 -5 -4 -5 12 0 17 2 24 5 18 2 -7 2 -21 0 -30z m130 -15 c-2 -13 -4 -5 -4 17 -1 22 1 32 4 23 2 -10 2 -28 0 -40z" fill="#269631"/>
<path d="M4608 450 c-9 -6 -22 -26 -28 -45 -14 -42 1 -100 30 -115 24 -13 66 -13 91 0 16 9 19 7 19 -13 0 -49 -64 -75 -102 -40 -15 13 -21 14 -31 4 -19 -20 27 -51 75 -51 28 0 46 7 63 25 24 23 25 31 25 135 0 88 -3 110 -14 110 -8 0 -17 -6 -20 -12 -5 -10 -7 -10 -12 0 -7 14 -72 16 -96 2z m90 -26 c34 -23 28 -92 -9 -113 -24 -13 -29 -13 -53 2 -35 23 -37 88 -4 111 28 20 38 20 66 0z m39 -36 c-3 -8 -6 -5 -6 6 -1 11 2 17 5 13 3 -3 4 -12 1 -19z m0 -60 c-3 -7 -5 -2 -5 12 0 14 2 19 5 13 2 -7 2 -19 0 -25z m0 -70 c-3 -8 -6 -5 -6 6 -1 11 2 17 5 13 3 -3 4 -12 1 -19z" fill="#269631"/>
<path d="M5143 445 c-34 -24 -47 -76 -29 -118 17 -42 41 -57 91 -57 51 0 85 38 85 97 0 58 -33 93 -87 93 -21 0 -48 -7 -60 -15z m91 -26 c48 -38 26 -119 -32 -119 -58 0 -84 78 -42 120 25 25 41 25 74 -1z" fill="#269631"/>
<path d="M5340 385 c0 -62 4 -79 20 -95 25 -25 76 -26 103 -2 19 16 20 16 14 0 -5 -13 -1 -18 13 -18 19 0 20 7 20 95 0 88 -1 95 -20 95 -18 0 -20 -7 -20 -68 0 -75 -10 -92 -51 -92 -37 0 -43 12 -42 92 1 61 -1 68 -18 68 -17 0 -19 -8 -19 -75z" fill="#269631"/>
<path d="M5970 440 c-60 -60 -21 -170 61 -170 43 0 91 32 73 50 -8 8 -14 7 -24 -5 -19 -23 -76 -19 -94 7 -9 12 -16 26 -16 30 0 5 32 8 70 8 l70 0 0 30 c0 17 -9 39 -20 50 -27 27 -93 27 -120 0z m94 -16 c31 -30 20 -44 -34 -44 -56 0 -67 17 -28 44 28 20 43 20 62 0z" fill="#269631"/>
<path d="M6180 435 c-16 -18 -23 -37 -24 -69 -1 -59 31 -96 85 -96 43 0 91 32 73 50 -8 8 -14 7 -24 -5 -15 -18 -71 -20 -88 -3 -7 7 -12 20 -12 30 0 15 9 18 65 18 l65 0 0 30 c0 67 -91 97 -140 45z m91 -5 c10 -6 19 -20 19 -30 0 -17 -7 -20 -50 -20 -56 0 -67 17 -28 44 26 19 33 19 59 6z" fill="#269631"/>
<path d="M7430 365 c0 -87 2 -95 19 -95 18 0 20 7 20 60 0 32 2 68 6 79 8 25 38 35 65 21 17 -9 20 -20 20 -85 0 -68 2 -75 20 -75 18 0 20 7 20 60 0 33 -7 76 -14 95 -14 32 -19 35 -55 35 -22 0 -43 -4 -46 -10 -3 -5 -11 -10 -16 -10 -6 0 -7 5 -4 10 3 6 -3 10 -14 10 -20 0 -21 -6 -21 -95z" fill="#269631"/>
<path d="M8038 365 c3 -74 6 -95 18 -95 11 0 14 16 14 70 0 63 2 71 24 85 50 33 83 -19 74 -115 -3 -33 0 -40 14 -40 16 0 18 10 18 73 0 91 -15 117 -69 117 -20 0 -42 -5 -49 -12 -9 -9 -12 -9 -12 0 0 7 -8 12 -17 12 -16 0 -18 -10 -15 -95z m19 33 c-3 -7 -5 -2 -5 12 0 14 2 19 5 13 2 -7 2 -19 0 -25z" fill="#269631"/>
<path d="M8287 448 c-42 -32 -47 -104 -11 -147 20 -25 34 -31 64 -31 45 0 94 34 71 49 -10 6 -19 4 -28 -5 -22 -22 -69 -17 -87 8 -9 12 -16 26 -16 30 0 5 32 8 70 8 l70 0 0 30 c0 42 -31 70 -78 70 -21 0 -46 -6 -55 -12z m81 -24 c39 -27 28 -44 -27 -44 -60 0 -70 11 -35 39 32 25 33 25 62 5z" fill="#269631"/>
<path d="M8836 445 c-15 -12 -17 -18 -8 -27 9 -9 16 -8 30 5 32 29 72 15 72 -25 0 -14 -8 -18 -40 -18 -65 0 -103 -56 -64 -94 18 -19 75 -21 92 -4 9 9 12 9 12 0 0 -7 8 -12 18 -12 15 0 16 9 12 85 -4 61 -9 88 -20 95 -23 14 -82 11 -104 -5z m94 -105 c0 -29 -43 -54 -69 -40 -12 6 -21 15 -21 20 0 18 33 40 61 40 22 0 29 -5 29 -20z" fill="#269631"/>
<path d="M6612 271 c-7 -21 -12 -41 -12 -45 0 -16 22 8 39 45 18 37 18 39 2 39 -12 0 -22 -13 -29 -39z" fill="#269631"/>
</g>
</svg>